<svg xmlns="http://www.w3.org/2000/svg" viewBox="0 0 960 640" role="img" aria-labelledby="title">
  <title>Overlord Codex Plugin Screenshot</title>
  <rect width="960" height="640" rx="32" fill="#EEE8DC" />
  <rect x="28" y="28" width="904" height="584" rx="24" fill="#102A26" />
  <rect x="56" y="56" width="220" height="528" rx="20" fill="#173D37" />
  <rect x="300" y="56" width="604" height="528" rx="20" fill="#F6F3EC" />
  <rect x="80" y="88" width="96" height="14" rx="7" fill="#F4B35D" />
  <rect x="80" y="130" width="160" height="14" rx="7" fill="#D5E4DE" opacity="0.92" />
  <rect x="80" y="160" width="132" height="14" rx="7" fill="#D5E4DE" opacity="0.62" />
  <rect x="80" y="226" width="172" height="42" rx="21" fill="#1E6B5C" />
  <rect x="332" y="96" width="184" height="18" rx="9" fill="#214D43" />
  <rect x="332" y="146" width="520" height="18" rx="9" fill="#CFD8D3" />
  <rect x="332" y="180" width="470" height="18" rx="9" fill="#CFD8D3" />
  <rect x="332" y="214" width="550" height="18" rx="9" fill="#CFD8D3" />
  <rect x="332" y="276" width="524" height="116" rx="18" fill="#F0EADF" />
  <rect x="356" y="304" width="168" height="14" rx="7" fill="#173D37" />
  <rect x="356" y="336" width="468" height="14" rx="7" fill="#B9C7C2" />
  <rect x="356" y="360" width="384" height="14" rx="7" fill="#B9C7C2" />
  <rect x="332" y="430" width="180" height="44" rx="22" fill="#1E6B5C" />
  <rect x="530" y="430" width="140" height="44" rx="22" fill="#E0D8CA" />
  <text
    x="332"
    y="538"
    fill="#214D43"
    font-family="IBM Plex Mono, monospace"
    font-size="24"
  >Attach, update, ask, deliver</text>
</svg>
